<mxfile host="65bd71144e">
    <diagram id="IfQ387mVuF01Pat3MBLB" name="Page-1">
        <mxGraphModel dx="1199" dy="479" grid="1" gridSize="10" guides="1" tooltips="1" connect="1" arrows="1" fold="1" page="1" pageScale="1" pageWidth="827" pageHeight="1169" math="0" shadow="0">
            <root>
                <mxCell id="0"/>
                <mxCell id="1" parent="0"/>
                <mxCell id="2" value="" style="rounded=0;whiteSpace=wrap;html=1;" parent="1" vertex="1">
                    <mxGeometry x="180" y="160" width="760" height="60" as="geometry"/>
                </mxCell>
                <mxCell id="3" value="Offset0" style="rounded=0;whiteSpace=wrap;html=1;" parent="1" vertex="1">
                    <mxGeometry x="180" y="160" width="120" height="60" as="geometry"/>
                </mxCell>
                <mxCell id="5" value="Offset2" style="rounded=0;whiteSpace=wrap;html=1;" parent="1" vertex="1">
                    <mxGeometry x="300" y="160" width="120" height="60" as="geometry"/>
                </mxCell>
                <mxCell id="6" value="" style="endArrow=none;html=1;" parent="1" edge="1">
                    <mxGeometry width="50" height="50" relative="1" as="geometry">
                        <mxPoint x="960" y="400" as="sourcePoint"/>
                        <mxPoint x="960" as="targetPoint"/>
                    </mxGeometry>
                </mxCell>
                <mxCell id="7" value="512 (0-64)&lt;br&gt;(PAGE0)" style="rounded=1;whiteSpace=wrap;html=1;" parent="1" vertex="1">
                    <mxGeometry x="500" y="80" width="120" height="60" as="geometry"/>
                </mxCell>
                <mxCell id="8" value="512 (65-128)&lt;br&gt;(PAGE1)" style="rounded=1;whiteSpace=wrap;html=1;" parent="1" vertex="1">
                    <mxGeometry x="990" y="70" width="120" height="60" as="geometry"/>
                </mxCell>
                <mxCell id="9" value="Offset5" style="rounded=0;whiteSpace=wrap;html=1;" parent="1" vertex="1">
                    <mxGeometry x="534" y="160" width="120" height="60" as="geometry"/>
                </mxCell>
                <mxCell id="10" value="Offset3" style="rounded=0;whiteSpace=wrap;html=1;" parent="1" vertex="1">
                    <mxGeometry x="414" y="160" width="120" height="60" as="geometry"/>
                </mxCell>
                <mxCell id="11" value="" style="rounded=0;whiteSpace=wrap;html=1;" vertex="1" parent="1">
                    <mxGeometry x="180" y="340" width="760" height="60" as="geometry"/>
                </mxCell>
                <mxCell id="12" value="Offset0" style="rounded=0;whiteSpace=wrap;html=1;" vertex="1" parent="1">
                    <mxGeometry x="180" y="340" width="120" height="60" as="geometry"/>
                </mxCell>
                <mxCell id="13" value="Minute1&lt;br&gt;Message=5" style="rounded=0;whiteSpace=wrap;html=1;" vertex="1" parent="1">
                    <mxGeometry x="300" y="340" width="120" height="60" as="geometry"/>
                </mxCell>
                <mxCell id="15" value="Minute2&lt;br&gt;Message=20" style="rounded=0;whiteSpace=wrap;html=1;" vertex="1" parent="1">
                    <mxGeometry x="420" y="340" width="120" height="60" as="geometry"/>
                </mxCell>
                <mxCell id="16" value="Minute2&lt;br&gt;Message=20" style="rounded=0;whiteSpace=wrap;html=1;" vertex="1" parent="1">
                    <mxGeometry x="534" y="330" width="120" height="60" as="geometry"/>
                </mxCell>
            </root>
        </mxGraphModel>
    </diagram>
</mxfile>